<?xml version="1.0" standalone="no"?><!DOCTYPE svg PUBLIC "-//W3C//DTD SVG 1.1//EN" "http://www.w3.org/Graphics/SVG/1.1/DTD/svg11.dtd"><svg t="1603593858810" class="icon" viewBox="0 0 1024 1024" version="1.1" xmlns="http://www.w3.org/2000/svg" p-id="8503" xmlns:xlink="http://www.w3.org/1999/xlink" width="200" height="200"><defs><style type="text/css"></style></defs><path d="M736 896c-107.2 0-181.888-64-224-192 42.112-128 116.8-192 224-192s181.888 64 224 192c-42.112 128-116.8 192-224 192z m0-64a128 128 0 1 0 0-256 128 128 0 0 0 0 256zM192 320v384h222.272v128H64V192h832v213.312h-128V320H192z m544 448a64 64 0 1 1 0-128 64 64 0 0 1 0 128zM304 545.92l-46.336-44.16L372.48 380.992l97.472 97.472 83.328-83.328 45.312 45.248-128.64 128.64L373.76 472.64 304 545.856z" p-id="8504"></path></svg>